<svg width="20" height="20" viewBox="0 0 20 20" fill="none" xmlns="http://www.w3.org/2000/svg">
<g clip-path="url(#clip0)">
<path d="M16.2994 0.857178C17.2808 0.857178 18.1199 1.20559 18.8167 1.90242C19.5135 2.59926 19.8619 3.43834 19.8619 4.41968V16.2947C19.8619 17.276 19.5135 18.1151 18.8167 18.8119C18.1199 19.5088 17.2808 19.8572 16.2994 19.8572H13.9739V12.4971H16.4355L16.8066 9.62736H13.9739V7.79663C13.9739 7.33482 14.0708 6.98847 14.2646 6.75757C14.4584 6.52666 14.8357 6.41121 15.3964 6.41121L16.9056 6.39884V3.8383C16.386 3.76408 15.6521 3.72697 14.7037 3.72697C13.5822 3.72697 12.6854 4.05683 12.0133 4.71655C11.3412 5.37627 11.0052 6.30813 11.0052 7.51212V9.62736H8.53121V12.4971H11.0052V19.8572H4.42444C3.4431 19.8572 2.60402 19.5088 1.90719 18.8119C1.21035 18.1151 0.861938 17.276 0.861938 16.2947V4.41968C0.861938 3.43834 1.21035 2.59926 1.90719 1.90242C2.60402 1.20559 3.4431 0.857178 4.42444 0.857178H16.2994Z" fill="#EC4700"/>
</g>
<defs>
<clipPath id="clip0">
<rect width="19" height="19" fill="white" transform="translate(0.861938 0.857178)"/>
</clipPath>
</defs>
</svg>
