<svg width="136" height="40" viewBox="0 0 136 40" fill="none" xmlns="http://www.w3.org/2000/svg">
<path d="M130.077 40H5.07669C2.27669 40 0.0766907 37.8 0.0766907 35V5C0.0766907 2.2 2.27669 0 5.07669 0H130.077C132.877 0 135.077 2.2 135.077 5V35C135.077 37.7 132.877 40 130.077 40Z" fill="black"/>
<path d="M130.077 0.8C132.377 0.8 134.277 2.7 134.277 5V35C134.277 37.3 132.377 39.2 130.077 39.2H5.07669C2.77669 39.2 0.876691 37.3 0.876691 35V5C0.876691 2.7 2.77669 0.8 5.07669 0.8H130.077ZM130.077 0H5.07669C2.27669 0 0.0766907 2.2 0.0766907 5V35C0.0766907 37.8 2.27669 40 5.07669 40H130.077C132.877 40 135.077 37.8 135.077 35V5C135.077 2.3 132.877 0 130.077 0Z" fill="#A6A6A6"/>
<path d="M68.1767 21.8C65.7767 21.8 63.8767 23.6 63.8767 26.1C63.8767 28.5 65.7767 30.4 68.1767 30.4C70.5767 30.4 72.4767 28.6 72.4767 26.1C72.4767 23.5 70.5767 21.8 68.1767 21.8ZM68.1767 28.6C66.8767 28.6 65.7767 27.5 65.7767 26C65.7767 24.5 66.8767 23.4 68.1767 23.4C69.4767 23.4 70.5767 24.4 70.5767 26C70.5767 27.5 69.4767 28.6 68.1767 28.6ZM58.8767 21.8C56.4767 21.8 54.5767 23.6 54.5767 26.1C54.5767 28.5 56.4767 30.4 58.8767 30.4C61.2767 30.4 63.1767 28.6 63.1767 26.1C63.1767 23.5 61.2767 21.8 58.8767 21.8ZM58.8767 28.6C57.5767 28.6 56.4767 27.5 56.4767 26C56.4767 24.5 57.5767 23.4 58.8767 23.4C60.1767 23.4 61.2767 24.4 61.2767 26C61.2767 27.5 60.1767 28.6 58.8767 28.6ZM47.7767 23.1V24.9H52.0767C51.9767 25.9 51.5767 26.7 51.0767 27.2C50.4767 27.8 49.4767 28.5 47.7767 28.5C45.0767 28.5 43.0767 26.4 43.0767 23.7C43.0767 21 45.1767 18.9 47.7767 18.9C49.1767 18.9 50.2767 19.5 51.0767 20.2L52.3767 18.9C51.2767 17.9 49.8767 17.1 47.8767 17.1C44.2767 17.1 41.1767 20.1 41.1767 23.7C41.1767 27.3 44.2767 30.3 47.8767 30.3C49.8767 30.3 51.2767 29.7 52.4767 28.4C53.6767 27.2 54.0767 25.5 54.0767 24.2C54.0767 23.8 54.0767 23.4 53.9767 23.1H47.7767V23.1ZM93.1767 24.5C92.7767 23.5 91.7767 21.8 89.5767 21.8C87.3767 21.8 85.5767 23.5 85.5767 26.1C85.5767 28.5 87.3767 30.4 89.7767 30.4C91.6767 30.4 92.8767 29.2 93.2767 28.5L91.8767 27.5C91.3767 28.2 90.7767 28.7 89.7767 28.7C88.7767 28.7 88.1767 28.3 87.6767 27.4L93.3767 25L93.1767 24.5ZM87.3767 25.9C87.3767 24.3 88.6767 23.4 89.5767 23.4C90.2767 23.4 90.9767 23.8 91.1767 24.3L87.3767 25.9ZM82.6767 30H84.5767V17.5H82.6767V30ZM79.6767 22.7C79.1767 22.2 78.3767 21.7 77.3767 21.7C75.2767 21.7 73.2767 23.6 73.2767 26C73.2767 28.4 75.1767 30.2 77.3767 30.2C78.3767 30.2 79.1767 29.7 79.5767 29.2H79.6767V29.8C79.6767 31.4 78.7767 32.3 77.3767 32.3C76.2767 32.3 75.4767 31.5 75.2767 30.8L73.6767 31.5C74.1767 32.6 75.3767 34 77.4767 34C79.6767 34 81.4767 32.7 81.4767 29.6V22H79.6767V22.7V22.7ZM77.4767 28.6C76.1767 28.6 75.0767 27.5 75.0767 26C75.0767 24.5 76.1767 23.4 77.4767 23.4C78.7767 23.4 79.7767 24.5 79.7767 26C79.7767 27.5 78.7767 28.6 77.4767 28.6ZM101.877 17.5H97.3767V30H99.2767V25.3H101.877C103.977 25.3 105.977 23.8 105.977 21.4C105.977 19 103.977 17.5 101.877 17.5ZM101.977 23.5H99.2767V19.2H101.977C103.377 19.2 104.177 20.4 104.177 21.3C104.077 22.4 103.277 23.5 101.977 23.5ZM113.477 21.7C112.077 21.7 110.677 22.3 110.177 23.6L111.877 24.3C112.277 23.6 112.877 23.4 113.577 23.4C114.577 23.4 115.477 24 115.577 25V25.1C115.277 24.9 114.477 24.6 113.677 24.6C111.877 24.6 110.077 25.6 110.077 27.4C110.077 29.1 111.577 30.2 113.177 30.2C114.477 30.2 115.077 29.6 115.577 29H115.677V30H117.477V25.2C117.277 23 115.577 21.7 113.477 21.7ZM113.277 28.6C112.677 28.6 111.777 28.3 111.777 27.5C111.777 26.5 112.877 26.2 113.777 26.2C114.577 26.2 114.977 26.4 115.477 26.6C115.277 27.8 114.277 28.6 113.277 28.6ZM123.777 22L121.677 27.4H121.577L119.377 22H117.377L120.677 29.6L118.777 33.8H120.677L125.777 22H123.777ZM106.977 30H108.877V17.5H106.977V30Z" fill="white"/>
<path d="M10.4767 7.5C10.1767 7.8 9.97668 8.3 9.97668 8.9V31C9.97668 31.6 10.1767 32.1 10.4767 32.4L10.5767 32.5L22.9767 20.1V20V19.9L10.4767 7.5Z" fill="url(#paint0_linear)"/>
<path d="M27.0767 24.3L22.9767 20.2001V20V19.9L27.0767 15.8L27.1767 15.9L32.0767 18.7001C33.4767 19.5001 33.4767 20.8 32.0767 21.6L27.0767 24.3Z" fill="url(#paint1_linear)"/>
<path d="M27.1767 24.2L22.9767 20L10.4767 32.5C10.9767 33 11.6767 33 12.5767 32.6L27.1767 24.2Z" fill="url(#paint2_linear)"/>
<path d="M27.1767 15.8L12.5767 7.49999C11.6767 6.99999 10.9767 7.09999 10.4767 7.59999L22.9767 20L27.1767 15.8Z" fill="url(#paint3_linear)"/>
<path opacity="0.2" d="M27.0767 24.1L12.5767 32.3C11.7767 32.8 11.0767 32.7 10.5767 32.3L10.4767 32.4L10.5767 32.5C11.0767 32.9 11.7767 33 12.5767 32.5L27.0767 24.1Z" fill="black"/>
<path opacity="0.12" d="M10.4767 32.3C10.1767 32 10.0767 31.5 10.0767 30.9V31C10.0767 31.6 10.2767 32.1 10.5767 32.4V32.3H10.4767Z" fill="black"/>
<path opacity="0.12" d="M32.0767 21.3L27.0767 24.1L27.1767 24.2L32.0767 21.4C32.7767 21 33.0767 20.5 33.0767 20C33.0767 20.5 32.6767 20.9 32.0767 21.3Z" fill="black"/>
<path opacity="0.25" d="M12.5767 7.6L32.0767 18.7C32.6767 19.1 33.0767 19.5 33.0767 20C33.0767 19.5 32.7767 19 32.0767 18.6L12.5767 7.5C11.1767 6.7 10.0767 7.4 10.0767 9V9.1C10.0767 7.5 11.1767 6.8 12.5767 7.6Z" fill="white"/>
<path d="M41.3767 13V7H43.1767C44.0767 7 44.8767 7.3 45.3767 7.8C45.9767 8.4 46.1767 9.1 46.1767 10C46.1767 10.9 45.8767 11.6 45.3767 12.2C44.8767 12.7 44.0767 13 43.1767 13H41.3767ZM42.0767 12.3H43.1767C43.8767 12.3 44.3767 12.1 44.7767 11.7C45.1767 11.3 45.3767 10.7 45.3767 10C45.3767 9.3 45.1767 8.7 44.7767 8.3C44.3767 7.9 43.7767 7.7 43.1767 7.7H42.0767V12.3Z" fill="white" stroke="white" stroke-width="0.2" stroke-miterlimit="10"/>
<path d="M47.2767 13V7H48.0767V13H47.2767Z" fill="white" stroke="white" stroke-width="0.2" stroke-miterlimit="10"/>
<path d="M51.1767 13.1C50.7767 13.1 50.2767 13.0001 49.8767 12.7001C49.4767 12.4001 49.1767 12 49.0767 11.5L49.7767 11.2001C49.8767 11.5001 50.0767 11.8 50.2767 12C50.5767 12.2 50.8767 12.3 51.1767 12.3C51.4767 12.3 51.7767 12.2 52.0767 12C52.2767 11.8 52.4767 11.6 52.4767 11.3C52.4767 11 52.3767 10.7 52.0767 10.5C51.8767 10.3 51.4767 10.1 50.9767 10C50.4767 9.80005 50.0767 9.60005 49.7767 9.40005C49.4767 9.10005 49.3767 8.80005 49.3767 8.40005C49.3767 8.00005 49.5767 7.60005 49.8767 7.30005C50.1767 7.00005 50.6767 6.80005 51.1767 6.80005C51.6767 6.80005 52.0767 6.90005 52.3767 7.20005C52.6767 7.50005 52.8767 7.70005 52.9767 8.00005L52.2767 8.30005C52.1767 8.10005 52.0767 7.90005 51.8767 7.80005C51.6767 7.60005 51.3767 7.60005 51.0767 7.60005C50.7767 7.60005 50.5767 7.70005 50.2767 7.80005C50.1767 8.00005 50.0767 8.20005 50.0767 8.50005C50.0767 8.70005 50.1767 8.90005 50.3767 9.10005C50.5767 9.30005 50.8767 9.40005 51.2767 9.50005C51.5767 9.60005 51.7767 9.70005 51.9767 9.80005C52.1767 9.90005 52.3767 10.0001 52.5767 10.2001C52.7767 10.3001 52.9767 10.5 53.0767 10.8C53.1767 11 53.2767 11.3 53.2767 11.6C53.2767 11.9 53.1767 12.2 53.0767 12.4C52.9767 12.6 52.7767 12.8 52.5767 12.9C52.2767 12.9 52.0767 13 51.8767 13C51.5767 13.1 51.3767 13.1 51.1767 13.1Z" fill="white" stroke="white" stroke-width="0.2" stroke-miterlimit="10"/>
<path d="M55.0767 13H54.2767V7H56.2767C56.7767 7 57.1767 7.2 57.5767 7.5C57.9767 7.8 58.1767 8.3 58.1767 8.8C58.1767 9.3 57.9767 9.7 57.5767 10.1C57.1767 10.4 56.7767 10.6 56.2767 10.6H55.0767V13ZM55.0767 9.8H56.3767C56.6767 9.8 56.9767 9.7 57.1767 9.5C57.3767 9.3 57.4767 9 57.4767 8.8C57.4767 8.5 57.3767 8.3 57.1767 8.1C56.9767 7.9 56.6767 7.8 56.3767 7.8H55.0767V9.8Z" fill="white" stroke="white" stroke-width="0.2" stroke-miterlimit="10"/>
<path d="M64.0767 12.2C63.4767 12.8 62.7767 13.1 61.8767 13.1C60.9767 13.1 60.2767 12.8 59.6767 12.2C59.0767 11.6 58.7767 10.9 58.7767 10C58.7767 9.10002 59.0767 8.40002 59.6767 7.80002C60.2767 7.20002 60.9767 6.90002 61.8767 6.90002C62.7767 6.90002 63.4767 7.20002 64.0767 7.80002C64.6767 8.40002 64.9767 9.10002 64.9767 10C64.9767 10.9 64.6767 11.6 64.0767 12.2ZM60.2767 11.7C60.6767 12.1 61.2767 12.4 61.8767 12.4C62.4767 12.4 63.0767 12.2 63.4767 11.7C63.8767 11.3 64.1767 10.7 64.1767 10C64.1767 9.30002 63.9767 8.70002 63.4767 8.30002C63.0767 7.90002 62.4767 7.60003 61.8767 7.60003C61.2767 7.60003 60.6767 7.80002 60.2767 8.30002C59.8767 8.70002 59.5767 9.30002 59.5767 10C59.5767 10.7 59.7767 11.3 60.2767 11.7Z" fill="white" stroke="white" stroke-width="0.2" stroke-miterlimit="10"/>
<path d="M65.9767 13V7H66.8767L69.7767 11.7V10.5V7H70.5767V13H69.7767L66.6767 8.1V9.3V13H65.9767Z" fill="white" stroke="white" stroke-width="0.2" stroke-miterlimit="10"/>
<path d="M71.9767 13V7H72.7767V13H71.9767Z" fill="white" stroke="white" stroke-width="0.2" stroke-miterlimit="10"/>
<path d="M74.1767 13V7H76.3767C76.8767 7 77.2767 7.2 77.5767 7.5C77.8767 7.8 78.0767 8.2 78.0767 8.7C78.0767 9 77.9767 9.2 77.8767 9.5C77.7767 9.7 77.5767 9.9 77.2767 10C77.5767 10.1 77.7767 10.3 77.9767 10.5C78.1767 10.7 78.2767 11 78.2767 11.4C78.2767 11.9 78.0767 12.3 77.7767 12.6C77.3767 12.9 76.9767 13.1 76.4767 13.1H74.1767V13ZM74.9767 9.6H76.3767C76.6767 9.6 76.8767 9.5 77.0767 9.3C77.2767 9.1 77.3767 8.9 77.3767 8.7C77.3767 8.5 77.1767 8.2 77.0767 8C76.8767 7.8 76.6767 7.7 76.3767 7.7H74.9767V9.6V9.6ZM74.9767 12.3H76.5767C76.8767 12.3 77.0767 12.2 77.2767 12C77.4767 11.8 77.5767 11.6 77.5767 11.3C77.5767 11.1 77.4767 10.8 77.2767 10.6C77.0767 10.4 76.8767 10.3 76.5767 10.3H75.0767V12.3H74.9767Z" fill="white" stroke="white" stroke-width="0.2" stroke-miterlimit="10"/>
<path d="M79.2767 13V7H80.0767V12.3H82.6767V13H79.2767Z" fill="white" stroke="white" stroke-width="0.2" stroke-miterlimit="10"/>
<path d="M87.1767 7.7H84.4767V9.6H86.9767V10.3H84.4767V12.2H87.1767V13H83.6767V7H87.1767V7.7Z" fill="white" stroke="white" stroke-width="0.2" stroke-miterlimit="10"/>
<path d="M91.7767 13.1C91.3767 13.1 90.8767 13.0001 90.4767 12.7001C90.0767 12.4001 89.7767 12 89.6767 11.5L90.3767 11.2001C90.4767 11.5001 90.6767 11.8 90.8767 12C91.1767 12.2 91.4767 12.3 91.7767 12.3C92.0767 12.3 92.3767 12.2 92.6767 12C92.8767 11.8 93.0767 11.6 93.0767 11.3C93.0767 11 92.9767 10.7 92.6767 10.5C92.4767 10.3 92.0767 10.1 91.5767 10C91.0767 9.80005 90.6767 9.60005 90.3767 9.40005C90.0767 9.10005 89.9767 8.80005 89.9767 8.40005C89.9767 8.00005 90.1767 7.60005 90.4767 7.30005C90.7767 7.00005 91.2767 6.80005 91.7767 6.80005C92.2767 6.80005 92.6767 6.90005 92.9767 7.20005C93.2767 7.50005 93.4767 7.70005 93.5767 8.00005L92.8767 8.30005C92.7767 8.10005 92.6767 7.90005 92.4767 7.80005C92.2767 7.60005 91.9767 7.60005 91.6767 7.60005C91.3767 7.60005 91.1767 7.70005 90.8767 7.80005C90.6767 8.00005 90.5767 8.20005 90.5767 8.40005C90.5767 8.60005 90.6767 8.80005 90.8767 9.00005C91.0767 9.20005 91.3767 9.30005 91.7767 9.40005C92.0767 9.50005 92.2767 9.60005 92.4767 9.70005C92.6767 9.80005 92.8767 9.90005 93.0767 10.1C93.2767 10.2 93.4767 10.4001 93.5767 10.7001C93.6767 10.9001 93.7767 11.2 93.7767 11.5C93.7767 11.8 93.6767 12.1 93.5767 12.3C93.4767 12.5 93.2767 12.7 93.0767 12.8C92.8767 12.9 92.6767 13 92.4767 13.1C92.2767 13.1 92.0767 13.1 91.7767 13.1Z" fill="white" stroke="white" stroke-width="0.2" stroke-miterlimit="10"/>
<path d="M96.9767 13.1C96.2767 13.1 95.7767 12.9 95.3767 12.4C94.9767 12 94.7767 11.4 94.7767 10.7V7H95.5767V10.8C95.5767 11.3 95.6767 11.7 95.9767 12C96.1767 12.3 96.5767 12.4 97.0767 12.4C97.5767 12.4 97.8767 12.3 98.1767 12C98.3767 11.7 98.5767 11.3 98.5767 10.8V7H99.3767V10.8C99.3767 11.5 99.1767 12.1 98.7767 12.5C98.2767 12.9 97.6767 13.1 96.9767 13.1Z" fill="white" stroke="white" stroke-width="0.2" stroke-miterlimit="10"/>
<path d="M100.477 13V7H102.477C102.977 7 103.377 7.2 103.777 7.5C104.177 7.8 104.377 8.3 104.377 8.8C104.377 9.2 104.277 9.6 103.977 9.9C103.677 10.2 103.377 10.4 102.977 10.5L104.677 12.9H103.777L102.177 10.5H101.277V13H100.477ZM101.277 9.8H102.477C102.777 9.8 103.077 9.7 103.277 9.5C103.477 9.3 103.577 9 103.577 8.7C103.577 8.4 103.477 8.2 103.277 8C103.077 7.8 102.777 7.7 102.477 7.7H101.177V9.8H101.277Z" fill="white" stroke="white" stroke-width="0.2" stroke-miterlimit="10"/>
<defs>
<linearGradient id="paint0_linear" x1="21.8764" y1="8.7097" x2="5.09399" y2="25.4921" gradientUnits="userSpaceOnUse">
<stop stop-color="#00A0FF"/>
<stop offset="0.00657445" stop-color="#00A1FF"/>
<stop offset="0.2601" stop-color="#00BEFF"/>
<stop offset="0.5122" stop-color="#00D2FF"/>
<stop offset="0.7604" stop-color="#00DFFF"/>
<stop offset="1" stop-color="#00E3FF"/>
</linearGradient>
<linearGradient id="paint1_linear" x1="33.9111" y1="20.0014" x2="9.71419" y2="20.0014" gradientUnits="userSpaceOnUse">
<stop stop-color="#FFE000"/>
<stop offset="0.4087" stop-color="#FFBD00"/>
<stop offset="0.7754" stop-color="#FFA500"/>
<stop offset="1" stop-color="#FF9C00"/>
</linearGradient>
<linearGradient id="paint2_linear" x1="24.9037" y1="22.2961" x2="2.14539" y2="45.0544" gradientUnits="userSpaceOnUse">
<stop stop-color="#FF3A44"/>
<stop offset="1" stop-color="#C31162"/>
</linearGradient>
<linearGradient id="paint3_linear" x1="7.37398" y1="0.17619" x2="17.5366" y2="10.3387" gradientUnits="userSpaceOnUse">
<stop stop-color="#32A071"/>
<stop offset="0.0685" stop-color="#2DA771"/>
<stop offset="0.4762" stop-color="#15CF74"/>
<stop offset="0.8009" stop-color="#06E775"/>
<stop offset="1" stop-color="#00F076"/>
</linearGradient>
</defs>
</svg>
