<svg width="20" height="20" viewBox="0 0 20 20" fill="none" xmlns="http://www.w3.org/2000/svg">
<g clip-path="url(#clip0)">
<path d="M13.2428 10.3572C13.2428 9.48305 12.9336 8.73673 12.3151 8.11824C11.6966 7.49975 10.9503 7.19051 10.0762 7.19051C9.20204 7.19051 8.45573 7.49975 7.83724 8.11824C7.21875 8.73673 6.90951 9.48305 6.90951 10.3572C6.90951 11.2313 7.21875 11.9776 7.83724 12.5961C8.45573 13.2146 9.20204 13.5238 10.0762 13.5238C10.9503 13.5238 11.6966 13.2146 12.3151 12.5961C12.9336 11.9776 13.2428 11.2313 13.2428 10.3572ZM14.9499 10.3572C14.9499 11.7096 14.4757 12.86 13.5273 13.8083C12.579 14.7567 11.4286 15.2309 10.0762 15.2309C8.72374 15.2309 7.57335 14.7567 6.625 13.8083C5.67665 12.86 5.20247 11.7096 5.20247 10.3572C5.20247 9.00475 5.67665 7.85435 6.625 6.906C7.57335 5.95765 8.72374 5.48348 10.0762 5.48348C11.4286 5.48348 12.579 5.95765 13.5273 6.906C14.4757 7.85435 14.9499 9.00475 14.9499 10.3572ZM16.2858 5.28556C16.2858 5.59893 16.1745 5.86694 15.9518 6.0896C15.7292 6.31225 15.4612 6.42358 15.1478 6.42358C14.8344 6.42358 14.5664 6.31225 14.3437 6.0896C14.1211 5.86694 14.0098 5.59893 14.0098 5.28556C14.0098 4.97219 14.1211 4.70418 14.3437 4.48153C14.5664 4.25887 14.8344 4.14754 15.1478 4.14754C15.4612 4.14754 15.7292 4.25887 15.9518 4.48153C16.1745 4.70418 16.2858 4.97219 16.2858 5.28556ZM10.0762 2.56421C10.0184 2.56421 9.70302 2.56215 9.12988 2.55802C8.55675 2.5539 8.12175 2.5539 7.82487 2.55802C7.52799 2.56215 7.1301 2.57452 6.63118 2.59513C6.13227 2.61575 5.70757 2.65698 5.3571 2.71883C5.00662 2.78068 4.71181 2.85696 4.47266 2.94767C4.06033 3.1126 3.69748 3.35175 3.38411 3.66512C3.07075 3.97849 2.8316 4.34134 2.66667 4.75366C2.57595 4.99281 2.49967 5.28762 2.43783 5.6381C2.37598 5.98858 2.33474 6.41327 2.31413 6.91219C2.29351 7.4111 2.28114 7.809 2.27702 8.10588C2.27289 8.40275 2.27289 8.83775 2.27702 9.41089C2.28114 9.98402 2.2832 10.2995 2.2832 10.3572C2.2832 10.4149 2.28114 10.7303 2.27702 11.3035C2.27289 11.8766 2.27289 12.3116 2.27702 12.6085C2.28114 12.9054 2.29351 13.3032 2.31413 13.8022C2.33474 14.3011 2.37598 14.7258 2.43783 15.0763C2.49967 15.4267 2.57595 15.7215 2.66667 15.9607C2.8316 16.373 3.07075 16.7359 3.38411 17.0492C3.69748 17.3626 4.06033 17.6018 4.47266 17.7667C4.71181 17.8574 5.00662 17.9337 5.3571 17.9955C5.70757 18.0574 6.13227 18.0986 6.63118 18.1192C7.1301 18.1398 7.52799 18.1522 7.82487 18.1563C8.12175 18.1605 8.55675 18.1605 9.12988 18.1563C9.70302 18.1522 10.0184 18.1501 10.0762 18.1501C10.1339 18.1501 10.4493 18.1522 11.0225 18.1563C11.5956 18.1605 12.0306 18.1605 12.3275 18.1563C12.6243 18.1522 13.0222 18.1398 13.5212 18.1192C14.0201 18.0986 14.4448 18.0574 14.7952 17.9955C15.1457 17.9337 15.4405 17.8574 15.6797 17.7667C16.092 17.6018 16.4549 17.3626 16.7682 17.0492C17.0816 16.7359 17.3207 16.373 17.4857 15.9607C17.5764 15.7215 17.6527 15.4267 17.7145 15.0763C17.7764 14.7258 17.8176 14.3011 17.8382 13.8022C17.8588 13.3032 17.8712 12.9054 17.8753 12.6085C17.8794 12.3116 17.8794 11.8766 17.8753 11.3035C17.8712 10.7303 17.8691 10.4149 17.8691 10.3572C17.8691 10.2995 17.8712 9.98402 17.8753 9.41089C17.8794 8.83775 17.8794 8.40275 17.8753 8.10588C17.8712 7.809 17.8588 7.4111 17.8382 6.91219C17.8176 6.41327 17.7764 5.98858 17.7145 5.6381C17.6527 5.28762 17.5764 4.99281 17.4857 4.75366C17.3207 4.34134 17.0816 3.97849 16.7682 3.66512C16.4549 3.35175 16.092 3.1126 15.6797 2.94767C15.4405 2.85696 15.1457 2.78068 14.7952 2.71883C14.4448 2.65698 14.0201 2.61575 13.5212 2.59513C13.0222 2.57452 12.6243 2.56215 12.3275 2.55802C12.0306 2.5539 11.5956 2.5539 11.0225 2.55802C10.4493 2.56215 10.1339 2.56421 10.0762 2.56421ZM19.5762 10.3572C19.5762 12.2456 19.5556 13.5527 19.5143 14.2784C19.4319 15.9937 18.9206 17.3214 17.9805 18.2615C17.0404 19.2016 15.7127 19.7129 13.9974 19.7953C13.2717 19.8366 11.9646 19.8572 10.0762 19.8572C8.18772 19.8572 6.88064 19.8366 6.15495 19.7953C4.43967 19.7129 3.11198 19.2016 2.17187 18.2615C1.23177 17.3214 0.720486 15.9937 0.638021 14.2784C0.596788 13.5527 0.576172 12.2456 0.576172 10.3572C0.576172 8.46872 0.596788 7.16165 0.638021 6.43595C0.720486 4.72067 1.23177 3.39298 2.17187 2.45288C3.11198 1.51277 4.43967 1.00149 6.15495 0.919027C6.88064 0.877795 8.18772 0.857178 10.0762 0.857178C11.9646 0.857178 13.2717 0.877795 13.9974 0.919027C15.7127 1.00149 17.0404 1.51277 17.9805 2.45288C18.9206 3.39298 19.4319 4.72067 19.5143 6.43595C19.5556 7.16165 19.5762 8.46872 19.5762 10.3572Z" fill="#EC4700"/>
</g>
<defs>
<clipPath id="clip0">
<rect width="19" height="19" fill="white" transform="translate(0.576172 0.857178)"/>
</clipPath>
</defs>
</svg>
