<svg width="182" height="43" viewBox="0 0 182 43" fill="none" xmlns="http://www.w3.org/2000/svg">
<path d="M0 43L24.5082 10.3787L49.2212 43H36.1138L24.5082 27.9806L13.1757 43H0Z" fill="#003528"/>
<path d="M31.4715 1L28.6043 5.00971L54 39.0583V31.3107L31.4715 1Z" fill="#EC4700"/>
<path d="M80.2338 20.6516C81.1899 19.0423 82.1004 17.4329 82.9654 15.8235C83.8304 14.2142 84.6271 12.5935 85.3556 10.9614H91.2286C89.931 13.5001 88.588 15.9595 87.1994 18.3396C85.8109 20.7196 84.3426 23.111 82.7947 25.5138V34.524H77.468V25.5818C75.9201 23.179 74.4405 20.7763 73.0291 18.3736C71.6406 15.9709 70.2975 13.5001 69 10.9614H75.1803C75.9087 12.5935 76.6941 14.2142 77.5363 15.8235C78.3786 17.4329 79.2777 19.0423 80.2338 20.6516Z" fill="#003528"/>
<path d="M107.958 33.912C107.093 34.1613 105.978 34.388 104.612 34.592C103.246 34.8187 101.812 34.932 100.31 34.932C98.7845 34.932 97.5097 34.728 96.4853 34.32C95.4837 33.912 94.687 33.3453 94.0952 32.6199C93.5033 31.8719 93.0822 30.9879 92.8318 29.9679C92.5814 28.9479 92.4562 27.8258 92.4562 26.6018V16.6396H97.5438V25.9898C97.5438 27.6218 97.7601 28.8005 98.1926 29.5259C98.6251 30.2512 99.4332 30.6139 100.617 30.6139C100.981 30.6139 101.368 30.6026 101.778 30.5799C102.188 30.5346 102.552 30.4892 102.87 30.4439V16.6396H107.958V33.912Z" fill="#003528"/>
<path d="M120.007 10.6894C123.558 10.6894 126.278 11.3241 128.168 12.5935C130.057 13.8401 131.002 15.7895 131.002 18.4416C131.002 20.0963 130.615 21.445 129.841 22.4877C129.09 23.5077 127.997 24.3124 126.563 24.9018C127.041 25.4911 127.542 26.1711 128.065 26.9418C128.589 27.6898 129.101 28.4832 129.602 29.3219C130.125 30.1379 130.626 30.9992 131.104 31.9059C131.582 32.7899 132.026 33.6626 132.436 34.524H126.46C126.028 33.7533 125.584 32.9713 125.129 32.1779C124.696 31.3846 124.241 30.6139 123.763 29.8659C123.308 29.1179 122.852 28.4152 122.397 27.7578C121.942 27.0778 121.487 26.4658 121.031 25.9218H118.402V34.524H113.075V11.3014C114.236 11.0747 115.431 10.9161 116.661 10.8254C117.913 10.7347 119.028 10.6894 120.007 10.6894ZM120.314 15.2115C119.927 15.2115 119.574 15.2228 119.256 15.2455C118.96 15.2682 118.675 15.2909 118.402 15.3135V21.7057H119.904C121.908 21.7057 123.342 21.4563 124.207 20.9577C125.072 20.459 125.504 19.609 125.504 18.4076C125.504 17.2516 125.06 16.4355 124.173 15.9595C123.308 15.4609 122.021 15.2115 120.314 15.2115Z" fill="#003528"/>
<path d="M140.596 34.524H135.509V16.6396H140.596V34.524ZM141.074 11.4714C141.074 12.4008 140.767 13.1375 140.152 13.6815C139.56 14.2028 138.855 14.4635 138.035 14.4635C137.216 14.4635 136.499 14.2028 135.884 13.6815C135.292 13.1375 134.996 12.4008 134.996 11.4714C134.996 10.5421 135.292 9.81672 135.884 9.29537C136.499 8.75136 137.216 8.47935 138.035 8.47935C138.855 8.47935 139.56 8.75136 140.152 9.29537C140.767 9.81672 141.074 10.5421 141.074 11.4714Z" fill="#003528"/>
<path d="M149.715 25.4458C149.715 27.0098 150.068 28.2678 150.774 29.2199C151.479 30.1719 152.526 30.6479 153.915 30.6479C154.37 30.6479 154.791 30.6366 155.178 30.6139C155.565 30.5686 155.884 30.5232 156.134 30.4779V21.2637C155.816 21.0597 155.395 20.8897 154.871 20.7536C154.37 20.6176 153.858 20.5496 153.335 20.5496C150.922 20.5496 149.715 22.1817 149.715 25.4458ZM161.222 33.946C160.767 34.082 160.243 34.218 159.651 34.354C159.06 34.4673 158.434 34.5693 157.773 34.66C157.136 34.7507 156.476 34.8187 155.793 34.864C155.133 34.932 154.495 34.966 153.881 34.966C152.401 34.966 151.081 34.7507 149.92 34.32C148.759 33.8893 147.78 33.2773 146.984 32.4839C146.187 31.6679 145.572 30.6932 145.14 29.5599C144.73 28.4038 144.525 27.1118 144.525 25.6838C144.525 24.2331 144.707 22.9297 145.071 21.7737C145.436 20.595 145.959 19.5976 146.642 18.7816C147.325 17.9656 148.156 17.3422 149.135 16.9116C150.136 16.4809 151.274 16.2655 152.549 16.2655C153.255 16.2655 153.881 16.3335 154.427 16.4695C154.996 16.6055 155.565 16.7982 156.134 17.0476V8.95536L161.222 8.13934V33.946Z" fill="#003528"/>
<path d="M165.132 25.7178C165.132 24.1311 165.371 22.7484 165.849 21.5697C166.35 20.3683 166.999 19.371 167.796 18.5776C168.592 17.7842 169.503 17.1836 170.527 16.7756C171.574 16.3675 172.644 16.1635 173.737 16.1635C176.286 16.1635 178.301 16.9456 179.781 18.5096C181.26 20.051 182 22.329 182 25.3438C182 25.6384 181.989 25.9671 181.966 26.3298C181.943 26.6698 181.92 26.9758 181.898 27.2478H170.356C170.47 28.2905 170.96 29.1179 171.825 29.7299C172.69 30.3419 173.851 30.6479 175.308 30.6479C176.241 30.6479 177.151 30.5686 178.039 30.4099C178.95 30.2285 179.689 30.0132 180.259 29.7639L180.941 33.878C180.668 34.014 180.304 34.15 179.849 34.286C179.394 34.422 178.881 34.5353 178.312 34.626C177.766 34.7393 177.174 34.83 176.537 34.898C175.899 34.966 175.262 35 174.625 35C173.008 35 171.597 34.762 170.391 34.286C169.207 33.81 168.217 33.164 167.42 32.3479C166.646 31.5092 166.066 30.5232 165.679 29.3899C165.314 28.2565 165.132 27.0325 165.132 25.7178ZM177.083 23.7797C177.06 23.349 176.981 22.9297 176.844 22.5217C176.73 22.1137 176.537 21.751 176.264 21.4337C176.013 21.1163 175.683 20.8557 175.273 20.6516C174.886 20.4476 174.397 20.3456 173.805 20.3456C173.236 20.3456 172.747 20.4476 172.337 20.6516C171.927 20.833 171.586 21.0823 171.313 21.3997C171.039 21.717 170.823 22.091 170.664 22.5217C170.527 22.9297 170.425 23.349 170.356 23.7797H177.083Z" fill="#003528"/>
</svg>
